<?xml version="1.0" standalone="no"?>
<!DOCTYPE svg PUBLIC "-//W3C//DTD SVG 20010904//EN"
 "http://www.w3.org/TR/2001/REC-SVG-20010904/DTD/svg10.dtd">
<svg version="1.0" xmlns="http://www.w3.org/2000/svg"
 width="260.000000pt" height="260.000000pt" viewBox="0 0 260.000000 260.000000"
 preserveAspectRatio="xMidYMid meet">
<metadata>
Created by potrace 1.14, written by Peter Selinger 2001-2017
</metadata>
<g transform="translate(0.000000,260.000000) scale(0.100000,-0.100000)"
fill="#000000" stroke="none">
<path d="M0 2322 c0 -197 3 -281 12 -290 8 -8 8 -15 0 -24 -5 -7 -10 -54 -10
-105 l0 -93 44 0 c40 0 44 -2 44 -24 0 -13 3 -31 6 -40 4 -11 1 -16 -10 -16
-9 0 -16 -4 -16 -10 0 -5 15 -8 33 -6 108 11 157 20 157 30 0 6 -14 54 -30
106 -16 52 -30 96 -30 98 0 1 76 2 168 2 l168 0 43 -131 c30 -92 46 -128 54
-120 7 7 14 3 24 -16 17 -33 17 -43 -2 -43 -8 0 -15 -4 -15 -10 0 -5 6 -10 13
-10 6 0 17 -11 24 -25 9 -20 8 -25 -3 -25 -11 0 -12 -4 -4 -19 5 -11 10 -27
10 -36 0 -8 7 -32 15 -53 15 -35 16 -36 28 -15 11 20 29 47 116 177 30 46 83
102 100 107 7 3 16 22 21 44 4 22 11 48 15 58 6 13 1 18 -23 23 -26 5 -30 10
-30 37 1 26 3 28 13 13 16 -21 21 -20 50 8 20 20 70 43 134 62 10 3 12 17 8
58 -3 33 -1 58 6 65 8 8 3 11 -18 12 l-30 0 25 12 c14 6 27 14 30 18 3 3 15 9
27 13 20 6 101 80 130 119 16 21 39 104 31 113 -4 3 -21 3 -38 -1 -29 -6 -32
-10 -26 -36 5 -28 4 -29 -29 -29 -26 0 -33 -3 -29 -15 4 -8 2 -15 -4 -15 -6 0
-13 14 -17 30 -4 17 -11 30 -16 30 -6 0 -7 5 -4 10 7 12 -12 12 -40 1 -12 -5
-26 -4 -34 3 -12 9 -13 8 -7 -2 7 -12 4 -12 -15 -2 -21 12 -21 14 -6 25 9 6
14 14 12 17 -9 9 98 27 189 33 84 5 92 7 132 40 43 36 75 75 87 108 6 16 -5
17 -141 17 -135 0 -148 -2 -159 -20 -17 -26 -76 -24 -69 3 4 16 -27 17 -555
17 l-559 0 0 -278z m757 218 c3 -13 17 -22 42 -26 20 -4 30 -9 23 -11 -6 -3
-10 -9 -7 -14 7 -10 -32 -21 -60 -16 -31 5 -62 27 -47 33 6 3 12 17 12 30 0
30 30 33 37 4z m53 -100 c0 -5 12 -10 28 -10 21 0 24 -2 12 -10 -21 -13 -64
-12 -78 2 -19 19 -14 28 13 28 14 0 25 -4 25 -10z m40 -50 c0 -5 -8 -10 -17
-10 -15 0 -16 2 -3 10 19 12 20 12 20 0z m-45 -10 c3 -5 25 -10 48 -11 23 0
36 -3 30 -6 -7 -2 -13 -10 -13 -16 0 -19 -33 -34 -59 -27 -29 7 -46 31 -38 54
7 18 23 21 32 6z m121 -169 c-3 -4 4 -15 15 -25 16 -13 18 -20 10 -30 -9 -10
-7 -15 5 -20 9 -4 14 -9 10 -13 -3 -3 1 -17 9 -30 23 -34 5 -63 -39 -63 -33 0
-53 20 -41 40 3 5 1 11 -4 15 -6 3 -2 14 10 26 26 26 16 39 -31 39 -30 0 -40
4 -45 21 -5 13 -1 25 10 33 18 13 98 20 91 7z"/>
<path d="M2354 2557 c-17 -23 -56 -76 -87 -117 -70 -95 -144 -190 -467 -599
-25 -31 -66 -76 -92 -99 -25 -24 -54 -59 -63 -80 -10 -20 -24 -45 -33 -54 -14
-17 -13 -18 9 -19 17 -1 19 -3 7 -6 -26 -6 -22 -23 5 -24 16 -1 18 -2 5 -6
-10 -2 -18 -11 -18 -18 0 -7 34 -118 75 -245 41 -127 75 -234 75 -236 0 -3 14
-4 32 -2 l31 3 53 165 c29 91 95 291 147 445 l94 280 155 3 156 2 -103 -315
c-57 -173 -106 -328 -110 -345 -8 -36 1 -38 66 -15 31 11 50 13 64 6 11 -6 29
-11 39 -13 27 -4 31 -25 7 -33 -11 -3 -18 -12 -15 -20 3 -8 -4 -16 -18 -20
-27 -7 -96 -34 -118 -45 -9 -4 -30 -11 -48 -15 -18 -3 -32 -11 -32 -16 0 -11
12 -11 190 -13 117 -1 141 -4 184 -24 27 -12 50 -22 52 -22 2 0 4 243 4 539
l0 540 -30 33 c-16 18 -37 54 -46 80 -15 45 -15 51 0 73 9 14 21 25 26 25 6 0
9 6 7 12 -1 7 8 14 21 16 21 3 22 7 22 113 l0 109 -107 0 -108 -1 -31 -42z
m-540 -952 c3 -8 13 -15 23 -15 16 -1 16 -2 2 -10 -9 -5 -54 -11 -100 -14 -46
-3 -73 -3 -59 0 42 9 47 24 10 25 -31 1 -28 3 20 14 75 18 97 18 104 0z"/>
<path d="M1735 1590 c-3 -5 1 -10 9 -10 9 0 16 5 16 10 0 6 -4 10 -9 10 -6 0
-13 -4 -16 -10z"/>
<path d="M1 1435 c0 -31 2 -36 9 -23 6 10 7 25 1 40 -9 20 -10 18 -10 -17z"/>
<path d="M321 1421 c-8 -5 -11 -15 -8 -23 4 -11 -10 -18 -54 -27 -56 -11 -59
-14 -57 -38 2 -15 15 -40 30 -57 16 -17 28 -36 28 -42 0 -20 23 -22 95 -10 80
13 78 4 39 129 -25 78 -38 90 -73 68z"/>
<path d="M1 693 c-1 -694 -3 -672 45 -638 12 8 61 24 110 36 49 12 103 28 119
35 l30 13 -29 1 c-46 0 -106 22 -117 42 -12 21 -18 18 171 79 74 24 146 49
160 56 14 7 39 13 55 13 37 0 274 50 413 87 90 25 105 32 121 59 28 46 87 66
211 71 81 4 113 10 138 25 17 11 32 23 32 28 0 14 -112 61 -130 55 -28 -9 -70
61 -70 117 0 85 66 134 183 132 37 0 67 3 67 6 0 9 -121 382 -127 392 -6 11
-30 -14 -108 -112 -38 -47 -71 -87 -75 -90 -20 -14 -160 -431 -160 -477 -1
-15 -9 -38 -19 -50 -17 -20 -29 -22 -147 -26 -121 -4 -136 -7 -244 -45 -63
-23 -131 -42 -150 -42 -19 0 -82 -16 -140 -35 -121 -40 -141 -42 -164 -17 -15
18 -15 20 2 35 10 10 30 17 45 17 43 0 44 17 6 105 -4 11 -20 56 -34 100 -15
44 -30 89 -35 100 -13 31 -51 147 -57 173 -3 13 -1 34 6 48 6 13 16 35 22 48
10 21 7 38 -21 108 -18 46 -42 90 -53 99 -11 9 -28 36 -38 60 -17 43 -18 26
-18 -608z m66 -460 c23 -31 36 -56 24 -49 -6 4 -11 2 -11 -3 0 -6 -10 -11 -22
-11 -20 0 -23 6 -26 40 -3 43 11 52 35 23z"/>
<path d="M829 1045 c16 -57 27 -68 33 -37 4 16 -25 77 -42 87 -4 2 0 -20 9
-50z"/>
<path d="M406 1054 c-77 -15 -88 -21 -63 -35 11 -7 17 -22 17 -48 l0 -39 36 8
c29 7 39 5 55 -11 25 -25 24 -51 -1 -67 -11 -7 -20 -19 -20 -27 0 -8 -11 -21
-24 -30 -33 -22 -25 -65 13 -65 31 0 55 -32 46 -61 -4 -10 -10 -19 -15 -19 -4
0 -7 -8 -6 -17 0 -10 -13 -24 -34 -35 l-35 -17 53 -1 c35 0 52 -4 52 -13 0
-25 34 -34 100 -28 49 4 65 10 64 21 -2 25 -157 500 -163 499 -3 0 -37 -7 -75
-15z"/>
<path d="M2576 641 c-3 -4 -28 -7 -56 -6 -27 1 -48 0 -46 -4 3 -4 -11 -6 -29
-6 -20 1 -32 -2 -28 -8 4 -6 -3 -8 -15 -5 -17 5 -87 -11 -152 -33 -3 -1 -13
-4 -22 -7 -10 -2 -18 -8 -18 -13 0 -5 -7 -6 -15 -3 -8 4 -15 1 -15 -5 0 -6 -7
-11 -16 -11 -9 0 -12 -5 -8 -12 4 -7 3 -8 -4 -4 -14 8 -43 -8 -107 -59 -60
-49 -114 -106 -115 -122 0 -6 -15 -29 -34 -51 -29 -36 -34 -50 -40 -119 -4
-43 -4 -86 0 -96 4 -10 1 -17 -6 -17 -7 0 -10 -7 -6 -16 4 -9 1 -23 -5 -30
-10 -12 5 -14 87 -14 95 0 99 1 101 23 11 134 48 189 183 269 111 65 158 86
235 104 39 8 89 20 113 26 l42 11 0 74 0 75 -42 -7 c-24 -4 -104 -22 -178 -41
-74 -19 -137 -34 -140 -33 -23 2 168 59 283 84 62 14 77 21 77 35 0 21 -16 35
-24 21z m-81 -131 c-3 -5 -10 -10 -16 -10 -5 0 -9 5 -9 10 0 6 7 10 16 10 8 0
12 -4 9 -10z m-285 -24 c0 -2 -9 -6 -20 -9 -11 -3 -18 -1 -14 4 5 9 34 13 34
5z m150 -35 c0 -34 -25 -47 -67 -36 -14 3 -29 2 -32 -4 -8 -13 -53 -2 -48 12
3 10 111 56 135 56 7 1 12 -11 12 -28z m190 9 c0 -4 -14 -13 -32 -19 l-32 -11
24 25 c21 23 40 25 40 5z m-155 -50 c-3 -5 -10 -10 -16 -10 -5 0 -9 5 -9 10 0
6 7 10 16 10 8 0 12 -4 9 -10z m-285 -58 c0 -12 -49 -56 -55 -50 -3 3 5 17 17
32 23 26 38 33 38 18z m-137 -44 c-11 -13 -30 -42 -42 -66 -21 -42 -41 -48
-41 -13 0 32 28 76 57 88 42 18 49 15 26 -9z m157 16 c0 -8 -32 -33 -42 -34
-4 0 0 9 9 20 17 20 33 26 33 14z"/>
<path d="M370 490 c-20 -6 -21 -8 -5 -8 11 0 29 3 40 8 25 11 -1 11 -35 0z"/>
<path d="M1135 299 c-16 -5 -72 -19 -123 -30 -51 -11 -112 -29 -135 -39 l-42
-19 35 0 c19 -1 47 -7 62 -15 28 -15 65 -25 117 -31 16 -2 49 -13 73 -23 24
-11 63 -26 88 -33 45 -12 73 -28 54 -30 -17 -1 -171 -53 -219 -73 -5 -2 122
-5 284 -5 l294 -1 -55 43 c-30 23 -101 78 -157 122 -94 73 -212 145 -236 144
-5 0 -23 -5 -40 -10z"/>
<path d="M1400 260 c0 -5 11 -12 25 -16 14 -3 25 -12 25 -20 0 -19 37 -37 46
-23 4 7 0 16 -9 21 -9 5 -14 15 -11 22 3 9 -6 15 -27 20 -42 8 -49 8 -49 -4z"/>
<path d="M1511 181 c-8 -6 -9 -11 -3 -15 6 -3 14 -1 17 5 9 14 2 20 -14 10z"/>
<path d="M1545 152 c-12 -12 -4 -20 15 -15 14 4 20 0 20 -12 0 -14 3 -15 15
-5 8 7 13 16 10 20 -6 10 -53 19 -60 12z"/>
<path d="M405 58 c-6 -11 -26 -29 -45 -40 l-35 -18 170 0 170 1 -50 20 c-27
10 -77 26 -110 35 -33 8 -67 17 -75 19 -9 3 -20 -4 -25 -17z"/>
<path d="M1635 70 c3 -5 8 -10 11 -10 2 0 4 5 4 10 0 6 -5 10 -11 10 -5 0 -7
-4 -4 -10z"/>
</g>
</svg>
