<svg style='width:0; height:0; visibility: hidden;' xmlns="http://www.w3.org/2000/svg">
    <symbol id='svg-fb' xmlns:v="https://vecta.io/nano" viewBox="0 0 48 48">
        <g clip-path="url(#A)">
            <path d="M24 0c13.256 0 24 10.746 24 24S37.256 48 24 48 0 37.256 0 24 10.745 0 24 0z" fill="#3b5998"/>
            <path d="M26.922 16.522h3.093v-4.569h-3.636v.017c-4.406.156-5.309 2.632-5.388 5.233h-.009v2.282h-3v4.474h3v11.994h4.521V23.959h3.703l.715-4.474h-4.417v-1.378c0-.879.585-1.584 1.418-1.584z" fill="#fff"/>
        </g>
        <defs>
            <clipPath id="A">
                <path fill="#fff" d="M0 0h48v48H0z"/>
            </clipPath>
        </defs>
    </symbol>
    <symbol id='svg-tlg' xmlns:v="https://vecta.io/nano" viewBox="0 0 48 48">
        <g clip-path="url(#A)">
            <path d="M24 48c13.255 0 24-10.745 24-24S37.255 0 24 0 0 10.745 0 24s10.745 24 24 24z" fill="#039be5"/>
            <path d="M10.982 23.48l23.14-8.922c1.074-.388 2.012.262 1.664 1.886l.002-.002-3.94 18.562c-.292 1.316-1.074 1.636-2.168 1.016l-6-4.422-2.894 2.788c-.32.32-.59.59-1.21.59l.426-6.106 11.12-10.046c.484-.426-.108-.666-.746-.242l-13.742 8.652-5.924-1.848c-1.286-.408-1.314-1.286.272-1.906z" fill="#fff"/>
        </g>
        <defs>
            <clipPath id="A">
                <path fill="#fff" d="M0 0h48v48H0z"/>
            </clipPath>
        </defs>
    </symbol>
    <symbol id='svg-vk' xmlns:v="https://vecta.io/nano" viewBox="0 0 48 48">
        <g clip-path="url(#A)">
            <path d="M24 48c13.255 0 24-10.745 24-24S37.255 0 24 0 0 10.745 0 24s10.745 24 24 24z" fill="#4d76a1"/>
            <path fill-rule="evenodd" d="M23.093 34.526h1.884s.569-.062.86-.376c.267-.288.259-.827.259-.827s-.037-2.528 1.136-2.9c1.156-.367 2.641 2.443 4.215 3.523 1.19.818 2.095.638 2.095.638l4.209-.059s2.202-.136 1.158-1.867c-.086-.142-.608-1.28-3.129-3.621-2.639-2.449-2.285-2.053.893-6.29 1.936-2.58 2.71-4.155 2.468-4.83-.231-.643-1.654-.473-1.654-.473l-4.739.029s-.351-.048-.612.108c-.255.153-.418.509-.418.509s-.75 1.997-1.75 3.695c-2.11 3.583-2.954 3.772-3.299 3.55-.802-.518-.602-2.083-.602-3.195 0-3.472.527-4.92-1.025-5.295-.515-.125-.894-.207-2.212-.22-1.691-.018-3.122.005-3.932.402-.539.264-.955.852-.702.886.313.042 1.023.191 1.399.703.486.661.468 2.144.468 2.144s.279 4.087-.652 4.595c-.639.348-1.515-.363-3.396-3.613-.964-1.665-1.692-3.506-1.692-3.506s-.14-.344-.391-.528c-.304-.223-.728-.294-.728-.294l-4.503.029s-.676.019-.924.313c-.221.261-.018.802-.018.802s3.525 8.248 7.517 12.404c3.66 3.811 7.816 3.56 7.816 3.56z" fill="#fff"/>
        </g>
        <defs>
            <clipPath id="A">
                <path fill="#fff" d="M0 0h48v48H0z"/>
            </clipPath>
        </defs>
    </symbol>
    <symbol id='svg-wspp' xmlns:v="https://vecta.io/nano" viewBox="0 0 48 48">
        <g clip-path="url(#A)">
            <path d="M23.987.013A23.99 23.99 0 0 0 .006 24.004c.001 4.587 1.317 9.078 3.793 12.939L.067 46.625a1 1 0 0 0 .573 1.292 1 1 0 0 0 .361.067.97.97 0 0 0 .336-.058l9.994-3.568a23.99 23.99 0 0 0 33.04-7.68 23.99 23.99 0 0 0-7.68-33.04C32.88 1.264 28.478.008 23.987.013z" fill="#55cd6c"/>
            <path d="M35.422 28.098l-3.982-1.999c-1.735-.893-3.774.779-4.733 1.731a12.03 12.03 0 0 1-4.012-2.547 12.02 12.02 0 0 1-2.546-4.012c.951-.961 2.62-2.998 1.731-4.733l-1.999-3.984a1 1 0 0 0-.892-.55h-1.999c-2.911.503-5.027 3.043-4.997 5.996 0 3.138 3.756 9.167 6.288 11.701s8.561 6.288 11.701 6.288c2.954.03 5.494-2.086 5.996-4.997v-1.999a1 1 0 0 0-.558-.898z" fill="#fafafa"/>
        </g>
        <defs>
            <clipPath id="A">
                <path fill="#fff" d="M0 0h48v48H0z"/>
            </clipPath>
        </defs>
    </symbol>
    <symbol id='svg-gh' xmlns:v="https://vecta.io/nano" viewBox="0 0 42 42">
        <g clip-path="url(#A)">
            <path d="M21 .875c-11.602 0-21 9.24-21 20.636C0 30.63 6.017 38.364 14.359 41.09c1.05.194 1.435-.445 1.435-.992l-.026-3.509c-5.841 1.244-7.073-2.768-7.073-2.768-.956-2.382-2.336-3.019-2.336-3.019-1.902-1.279.147-1.253.147-1.253 2.109.143 3.217 2.126 3.217 2.126 1.873 3.155 4.916 2.244 6.116 1.717.189-1.335.73-2.244 1.33-2.76-4.664-.516-9.565-2.291-9.565-10.197 0-2.252.814-4.093 2.161-5.537-.236-.521-.945-2.62.184-5.462 0 0 1.759-.553 5.775 2.116 1.68-.459 3.465-.686 5.25-.697 1.785.011 3.57.238 5.25.697 3.99-2.669 5.749-2.116 5.749-2.116 1.129 2.842.42 4.94.21 5.462 1.339 1.444 2.152 3.285 2.152 5.537 0 7.928-4.909 9.672-9.581 10.18.735.62 1.418 1.885 1.418 3.819l-.026 5.651c0 .541.367 1.187 1.444.98C35.989 38.355 42 30.616 42 21.511 42 10.115 32.597.875 21 .875z" fill="#212121"/>
        </g>
        <defs>
            <clipPath id="A">
                <path fill="#fff" d="M0 0h42v42H0z"/>
            </clipPath>
        </defs>
    </symbol>
    <symbol id='svg-lki' xmlns:v="https://vecta.io/nano">
        <g clip-path="url(#A)" fill="#000">
            <path d="M7.449 10.295H1.025c-.285 0-.516.231-.516.516v20.638c0 .285.231.516.516.516h6.424c.285 0 .516-.231.516-.516V10.811c0-.285-.231-.516-.516-.516zM4.239.035C1.902.035 0 1.935 0 4.27s1.902 4.236 4.239 4.236A4.24 4.24 0 0 0 8.475 4.27 4.24 4.24 0 0 0 4.239.035zm19.55 9.747c-2.58 0-4.488 1.109-5.644 2.369v-1.34c0-.285-.231-.516-.516-.516h-6.152c-.285 0-.516.231-.516.516v20.638c0 .285.231.516.516.516h6.41c.285 0 .516-.231.516-.516V21.238c0-3.441.935-4.781 3.333-4.781 2.612 0 2.82 2.149 2.82 4.958v10.034c0 .285.231.516.516.516h6.412c.285 0 .516-.231.516-.516v-11.32c0-5.116-.976-10.347-8.211-10.347z"/>
        </g>
        <defs>
            <clipPath id="A">
                <path fill="#fff" d="M0 0h32v32H0z"/>
            </clipPath>
        </defs>
    </symbol>
</svg>