<svg xmlns="http://www.w3.org/2000/svg" width="48" height="48" fill="none" xmlns:v="https://vecta.io/nano">
    <g clip-path="url(#A)">
        <path d="M24 48c13.255 0 24-10.745 24-24S37.255 0 24 0 0 10.745 0 24s10.745 24 24 24z" fill="#4d76a1"/>
        <path fill-rule="evenodd" d="M23.093 34.526h1.884s.569-.062.86-.376c.267-.288.259-.827.259-.827s-.037-2.528 1.136-2.9c1.156-.367 2.641 2.443 4.215 3.523 1.19.818 2.095.638 2.095.638l4.209-.059s2.202-.136 1.158-1.867c-.086-.142-.608-1.28-3.129-3.621-2.639-2.449-2.285-2.053.893-6.29 1.936-2.58 2.71-4.155 2.468-4.83-.231-.643-1.654-.473-1.654-.473l-4.739.029s-.351-.048-.612.108c-.255.153-.418.509-.418.509s-.75 1.997-1.75 3.695c-2.11 3.583-2.954 3.772-3.299 3.55-.802-.518-.602-2.083-.602-3.195 0-3.472.527-4.92-1.025-5.295-.515-.125-.894-.207-2.212-.22-1.691-.018-3.122.005-3.932.402-.539.264-.955.852-.702.886.313.042 1.023.191 1.399.703.486.661.468 2.144.468 2.144s.279 4.087-.652 4.595c-.639.348-1.515-.363-3.396-3.613-.964-1.665-1.692-3.506-1.692-3.506s-.14-.344-.391-.528c-.304-.223-.728-.294-.728-.294l-4.503.029s-.676.019-.924.313c-.221.261-.018.802-.018.802s3.525 8.248 7.517 12.404c3.66 3.811 7.816 3.56 7.816 3.56z" fill="#fff"/>
    </g>
    <defs>
        <clipPath id="A">
            <path fill="#fff" d="M0 0h48v48H0z"/>
        </clipPath>
    </defs>
</svg>