<svg xmlns="http://www.w3.org/2000/svg" width="48" height="48" fill="none" xmlns:v="https://vecta.io/nano">
    <g clip-path="url(#A)">
        <path d="M23.987.013A23.99 23.99 0 0 0 .006 24.004c.001 4.587 1.317 9.078 3.793 12.939L.067 46.625a1 1 0 0 0 .573 1.292 1 1 0 0 0 .361.067.97.97 0 0 0 .336-.058l9.994-3.568a23.99 23.99 0 0 0 33.04-7.68 23.99 23.99 0 0 0-7.68-33.04C32.88 1.264 28.478.008 23.987.013z" fill="#55cd6c"/>
        <path d="M35.422 28.098l-3.982-1.999c-1.735-.893-3.774.779-4.733 1.731a12.03 12.03 0 0 1-4.012-2.547 12.02 12.02 0 0 1-2.546-4.012c.951-.961 2.62-2.998 1.731-4.733l-1.999-3.984a1 1 0 0 0-.892-.55h-1.999c-2.911.503-5.027 3.043-4.997 5.996 0 3.138 3.756 9.167 6.288 11.701s8.561 6.288 11.701 6.288c2.954.03 5.494-2.086 5.996-4.997v-1.999a1 1 0 0 0-.558-.898z" fill="#fafafa"/>
    </g>
    <defs>
        <clipPath id="A">
            <path fill="#fff" d="M0 0h48v48H0z"/>
        </clipPath>
    </defs>
</svg>