<svg xmlns="http://www.w3.org/2000/svg" width="32" height="32" fill="none" xmlns:v="https://vecta.io/nano">
    <g clip-path="url(#A)" fill="#000">
        <path d="M7.449 10.295H1.025c-.285 0-.516.231-.516.516v20.638c0 .285.231.516.516.516h6.424c.285 0 .516-.231.516-.516V10.811c0-.285-.231-.516-.516-.516zM4.239.035C1.902.035 0 1.935 0 4.27s1.902 4.236 4.239 4.236A4.24 4.24 0 0 0 8.475 4.27 4.24 4.24 0 0 0 4.239.035zm19.55 9.747c-2.58 0-4.488 1.109-5.644 2.369v-1.34c0-.285-.231-.516-.516-.516h-6.152c-.285 0-.516.231-.516.516v20.638c0 .285.231.516.516.516h6.41c.285 0 .516-.231.516-.516V21.238c0-3.441.935-4.781 3.333-4.781 2.612 0 2.82 2.149 2.82 4.958v10.034c0 .285.231.516.516.516h6.412c.285 0 .516-.231.516-.516v-11.32c0-5.116-.976-10.347-8.211-10.347z"/>
    </g>
    <defs>
        <clipPath id="A">
            <path fill="#fff" d="M0 0h32v32H0z"/>
        </clipPath>
    </defs>
</svg>