<svg xmlns="http://www.w3.org/2000/svg" width="42" height="42" fill="none" xmlns:v="https://vecta.io/nano">
    <g clip-path="url(#A)">
        <path d="M21 .875c-11.602 0-21 9.24-21 20.636C0 30.63 6.017 38.364 14.359 41.09c1.05.194 1.435-.445 1.435-.992l-.026-3.509c-5.841 1.244-7.073-2.768-7.073-2.768-.956-2.382-2.336-3.019-2.336-3.019-1.902-1.279.147-1.253.147-1.253 2.109.143 3.217 2.126 3.217 2.126 1.873 3.155 4.916 2.244 6.116 1.717.189-1.335.73-2.244 1.33-2.76-4.664-.516-9.565-2.291-9.565-10.197 0-2.252.814-4.093 2.161-5.537-.236-.521-.945-2.62.184-5.462 0 0 1.759-.553 5.775 2.116 1.68-.459 3.465-.686 5.25-.697 1.785.011 3.57.238 5.25.697 3.99-2.669 5.749-2.116 5.749-2.116 1.129 2.842.42 4.94.21 5.462 1.339 1.444 2.152 3.285 2.152 5.537 0 7.928-4.909 9.672-9.581 10.18.735.62 1.418 1.885 1.418 3.819l-.026 5.651c0 .541.367 1.187 1.444.98C35.989 38.355 42 30.616 42 21.511 42 10.115 32.597.875 21 .875z" fill="#212121"/>
    </g>
    <defs>
        <clipPath id="A">
            <path fill="#fff" d="M0 0h42v42H0z"/>
        </clipPath>
    </defs>
</svg>